<?xml version="1.0" standalone="no"?>
<!DOCTYPE svg PUBLIC "-//W3C//DTD SVG 20010904//EN"
 "http://www.w3.org/TR/2001/REC-SVG-20010904/DTD/svg10.dtd">
<svg version="1.0" xmlns="http://www.w3.org/2000/svg"
 width="700.000000pt" height="700.000000pt" viewBox="0 0 700.000000 700.000000"
 preserveAspectRatio="xMidYMid meet">
<metadata>
Created by potrace 1.11, written by Peter Selinger 2001-2013
</metadata>
<g transform="translate(0.000000,700.000000) scale(0.100000,-0.100000)"
fill="#000000" stroke="none">
<path d="M423 6985 c-195 -42 -367 -216 -408 -412 -13 -58 -15 -503 -15 -3069
0 -2127 3 -3018 11 -3059 39 -213 221 -395 434 -434 82 -15 6026 -16 6111 0
208 37 395 224 433 433 15 83 16 6027 0 6112 -36 204 -213 386 -416 429 -99
21 -6054 21 -6150 0z m5603 -2294 l44 -105 -626 -1002 -625 -1002 -120 -113
c-66 -61 -118 -113 -116 -115 6 -6 991 68 999 75 4 3 52 127 107 274 54 148
101 270 103 273 6 6 291 -55 299 -64 4 -4 -11 -182 -32 -397 -21 -214 -39
-393 -39 -397 0 -5 -451 -8 -1002 -8 l-1003 0 -55 101 c-30 56 -54 104 -53
109 1 4 288 457 637 1006 565 889 647 1012 740 1119 57 66 103 121 101 123 -4
4 -816 -48 -831 -53 -6 -2 -56 -114 -110 -250 -85 -214 -101 -246 -117 -241
-11 2 -78 13 -151 22 -72 10 -132 18 -133 19 -3 1 72 629 83 698 l6 37 925 -2
925 -3 44 -104z m-3866 -26 c0 -121 -1 -125 -22 -129 -13 -3 -70 -12 -128 -21
-58 -9 -113 -19 -122 -21 -17 -5 -18 -34 -18 -435 l0 -429 485 0 485 0 0 429
0 428 -112 22 c-62 12 -123 24 -135 26 -22 5 -23 9 -23 130 l0 125 570 0 571
0 -3 -127 -3 -127 -105 -18 c-58 -9 -115 -20 -127 -23 l-23 -5 0 -1054 0
-1054 33 -5 c17 -3 76 -11 130 -18 l97 -12 0 -119 0 -118 -570 0 -571 0 3 117
3 118 133 19 132 19 0 469 0 468 -485 0 -485 0 0 -469 0 -470 58 -7 c31 -4 95
-12 142 -18 l85 -11 3 -117 3 -118 -581 0 -580 0 0 118 0 119 98 12 c53 7 112
15 130 18 l32 5 0 1054 0 1054 -22 5 c-13 3 -68 14 -123 24 l-100 17 -3 127
-3 127 576 0 575 0 0 -125z"/>
</g>
</svg>
