<svg width="217" height="28" viewBox="0 0 217 28" fill="none" xmlns="http://www.w3.org/2000/svg">
<path d="M9.384 3.12801H15.144L22.312 24.568L24.072 24.888V27H13.992V24.888L16.264 24.568L15.176 20.728H7.528L6.44 24.6L8.936 24.888V27H0.423998L0.391998 24.888L2.248 24.536L9.384 3.12801ZM11.752 8.69601L11.272 6.45601L10.76 8.72801L8.168 18.264H14.504L11.752 8.69601Z" fill="#117301"/>
<path d="M26.761 12.568L24.873 11.992V9.49601L30.697 8.79201H30.793L31.625 9.46401V10.648L31.593 11.384C32.3397 10.68 33.289 10.0827 34.441 9.59201C35.593 9.10134 36.7983 8.85601 38.057 8.85601C39.337 8.85601 40.3397 9.09068 41.065 9.56001C41.8117 10.008 42.345 10.7333 42.665 11.736C43.0063 12.7387 43.177 14.104 43.177 15.832V24.6L44.969 24.856V27H36.265V24.888L37.833 24.6V15.864C37.833 14.84 37.7583 14.0507 37.609 13.496C37.481 12.92 37.2463 12.504 36.905 12.248C36.5637 11.992 36.073 11.864 35.433 11.864C34.4517 11.864 33.3423 12.3227 32.105 13.24V24.6L33.865 24.888V27H25.001V24.888L26.761 24.6V12.568Z" fill="#117301"/>
<path d="M50.998 6.45601C50.166 6.45601 49.494 6.21068 48.982 5.72001C48.47 5.22934 48.214 4.60001 48.214 3.83201C48.214 2.93601 48.4913 2.20001 49.046 1.62401C49.622 1.04801 50.39 0.76001 51.35 0.76001C52.31 0.76001 53.046 1.00534 53.558 1.49601C54.07 1.98668 54.326 2.61601 54.326 3.38401C54.326 4.30134 54.038 5.04801 53.462 5.62401C52.886 6.17868 52.0753 6.45601 51.03 6.45601H50.998ZM49.046 12.568L46.902 11.96V9.56001L53.302 8.79201H53.366L54.358 9.46401V24.6L56.278 24.888V27H47.062V24.888L49.046 24.6V12.568Z" fill="#117301"/>
<path d="M58.5962 24.888L60.2923 24.6V12.568L58.4043 11.992V9.49601L64.2282 8.79201L64.4842 8.92001L65.1243 9.81601V11.416C65.8069 10.712 66.8096 10.1147 68.1322 9.62401C69.4549 9.11201 70.5856 8.85601 71.5243 8.85601C72.6763 8.85601 73.6043 9.04801 74.3083 9.43201C75.0336 9.81601 75.5776 10.4133 75.9402 11.224C76.6656 10.5413 77.5722 9.97601 78.6602 9.52801C79.7696 9.08001 80.8896 8.85601 82.0202 8.85601C83.8976 8.85601 85.2416 9.40001 86.0523 10.488C86.8843 11.576 87.3002 13.3573 87.3002 15.832V24.6L89.2203 24.888V27H80.5482V24.888L81.9883 24.6V15.96C81.9883 14.424 81.8069 13.3573 81.4443 12.76C81.1029 12.1627 80.4629 11.864 79.5243 11.864C78.5429 11.864 77.5189 12.28 76.4523 13.112C76.5803 13.9013 76.6442 14.808 76.6442 15.832V24.6L78.4362 24.888V27H69.7002V24.888L71.3002 24.6V15.864C71.3002 14.3493 71.1296 13.304 70.7883 12.728C70.4683 12.152 69.8496 11.864 68.9323 11.864C68.3349 11.864 67.7376 12.0027 67.1403 12.28C66.5643 12.536 66.0629 12.856 65.6363 13.24V24.6L67.3643 24.888V27H58.5962V24.888Z" fill="#117301"/>
<path d="M90.8335 21.88C90.8335 20.0027 91.7828 18.5627 93.6815 17.56C95.6015 16.5573 98.1188 16.0453 101.233 16.024V15.384C101.233 14.616 101.148 14.008 100.978 13.56C100.807 13.112 100.497 12.7813 100.049 12.568C99.6015 12.3333 98.9402 12.216 98.0655 12.216C97.0202 12.216 96.0815 12.344 95.2495 12.6C94.4388 12.8347 93.5855 13.1547 92.6895 13.56L91.6015 11.256C91.9428 10.9787 92.4975 10.648 93.2655 10.264C94.0335 9.85868 94.9508 9.51734 96.0175 9.24001C97.1055 8.94134 98.2362 8.79201 99.4095 8.79201C101.116 8.79201 102.449 9.01601 103.41 9.46401C104.391 9.91201 105.084 10.6053 105.49 11.544C105.916 12.4827 106.13 13.7627 106.13 15.384V24.888H107.794V26.904C107.303 27.0107 106.62 27.1173 105.745 27.224C104.871 27.3307 104.124 27.384 103.506 27.384C102.695 27.384 102.151 27.2667 101.874 27.032C101.618 26.7973 101.49 26.328 101.49 25.624V24.888C100.956 25.528 100.241 26.104 99.3455 26.616C98.4495 27.1067 97.4148 27.352 96.2415 27.352C95.2388 27.352 94.3215 27.1387 93.4895 26.712C92.6788 26.264 92.0282 25.6347 91.5375 24.824C91.0682 23.992 90.8335 23.0107 90.8335 21.88ZM98.7375 24.408C99.1215 24.408 99.5482 24.3013 100.018 24.088C100.487 23.8533 100.892 23.576 101.233 23.256V18.168C99.5695 18.168 98.3322 18.4667 97.5215 19.064C96.7322 19.6613 96.3375 20.4293 96.3375 21.368C96.3375 22.328 96.5508 23.0747 96.9775 23.608C97.4042 24.1413 97.9908 24.408 98.7375 24.408Z" fill="#117301"/>
<path d="M111.196 3.89601L108.955 3.48001V1.52801L115.355 0.76001H115.451L116.38 1.43201V24.6L118.46 24.888V27H109.147V24.888L111.196 24.6V3.89601Z" fill="#117301"/>
<path d="M122.771 5.88001L120.467 5.46401V3.22401H130.835V5.46401L128.212 5.88001V13.528H136.98V5.91201L134.579 5.46401V3.22401H144.82V5.46401L142.452 5.88001V24.568L144.82 24.888V27H134.579V24.888L136.98 24.536V16.248H128.212V24.568L130.835 24.888V27H120.404V24.888L122.771 24.568V5.88001Z" fill="#117301"/>
<path d="M147.471 18.2C147.471 16.152 147.877 14.424 148.687 13.016C149.498 11.5867 150.586 10.52 151.951 9.81601C153.338 9.11201 154.853 8.76001 156.495 8.76001C159.183 8.76001 161.285 9.57068 162.799 11.192C164.335 12.792 165.103 15.032 165.103 17.912C165.103 20.024 164.698 21.784 163.887 23.192C163.077 24.6 161.989 25.6453 160.623 26.328C159.258 27.0107 157.733 27.352 156.047 27.352C153.381 27.352 151.279 26.552 149.743 24.952C148.229 23.3307 147.471 21.08 147.471 18.2ZM156.367 25.112C157.391 25.112 158.149 24.568 158.639 23.48C159.151 22.3707 159.407 20.6427 159.407 18.296C159.407 15.8 159.162 13.9653 158.671 12.792C158.202 11.5973 157.402 11 156.271 11C154.181 11 153.135 13.272 153.135 17.816C153.135 20.2907 153.391 22.1253 153.903 23.32C154.415 24.5147 155.237 25.112 156.367 25.112Z" fill="#117301"/>
<path d="M168.003 24.888L169.699 24.6V12.568L167.811 11.992V9.49601L173.635 8.79201L173.891 8.92001L174.531 9.81601V11.416C175.213 10.712 176.216 10.1147 177.538 9.62401C178.861 9.11201 179.992 8.85601 180.93 8.85601C182.082 8.85601 183.011 9.04801 183.715 9.43201C184.44 9.81601 184.984 10.4133 185.346 11.224C186.072 10.5413 186.978 9.97601 188.066 9.52801C189.176 9.08001 190.296 8.85601 191.426 8.85601C193.304 8.85601 194.648 9.40001 195.458 10.488C196.29 11.576 196.706 13.3573 196.706 15.832V24.6L198.626 24.888V27H189.954V24.888L191.395 24.6V15.96C191.395 14.424 191.213 13.3573 190.85 12.76C190.509 12.1627 189.869 11.864 188.93 11.864C187.949 11.864 186.925 12.28 185.859 13.112C185.987 13.9013 186.051 14.808 186.051 15.832V24.6L187.842 24.888V27H179.107V24.888L180.706 24.6V15.864C180.706 14.3493 180.536 13.304 180.195 12.728C179.875 12.152 179.256 11.864 178.339 11.864C177.741 11.864 177.144 12.0027 176.546 12.28C175.97 12.536 175.469 12.856 175.042 13.24V24.6L176.771 24.888V27H168.003V24.888Z" fill="#117301"/>
<path d="M208.944 27.352C206.021 27.352 203.856 26.5307 202.448 24.888C201.04 23.224 200.336 20.9627 200.336 18.104C200.336 16.1627 200.698 14.488 201.424 13.08C202.149 11.672 203.162 10.6053 204.464 9.88001C205.786 9.13334 207.333 8.76001 209.104 8.76001C211.344 8.76001 213.05 9.32534 214.224 10.456C215.418 11.5867 216.037 13.1867 216.08 15.256C216.08 16.6213 215.984 17.72 215.792 18.552H205.776C205.882 20.3653 206.32 21.752 207.088 22.712C207.877 23.6507 208.976 24.12 210.384 24.12C211.173 24.12 211.994 23.992 212.848 23.736C213.722 23.4587 214.426 23.1493 214.96 22.808L215.856 24.76C215.301 25.3787 214.352 25.9653 213.008 26.52C211.685 27.0747 210.33 27.352 208.944 27.352ZM210.992 16.44L211.024 15.096C211.024 13.752 210.842 12.728 210.48 12.024C210.117 11.32 209.498 10.968 208.624 10.968C207.728 10.968 207.034 11.3627 206.544 12.152C206.053 12.92 205.786 14.3493 205.744 16.44H210.992Z" fill="#117301"/>
</svg>
