<svg width="233" height="28" viewBox="0 0 233 28" fill="none" xmlns="http://www.w3.org/2000/svg">
<path d="M9.384 3.12801H15.144L22.312 24.568L24.072 24.888V27H13.992V24.888L16.264 24.568L15.176 20.728H7.528L6.44 24.6L8.936 24.888V27H0.423998L0.391998 24.888L2.248 24.536L9.384 3.12801ZM11.752 8.69601L11.272 6.45601L10.76 8.72801L8.168 18.264H14.504L11.752 8.69601Z" fill="#117301"/>
<path d="M26.761 12.568L24.873 11.992V9.49601L30.697 8.79201H30.793L31.625 9.46401V10.648L31.593 11.384C32.3397 10.68 33.289 10.0827 34.441 9.59201C35.593 9.10134 36.7983 8.85601 38.057 8.85601C39.337 8.85601 40.3397 9.09068 41.065 9.56001C41.8117 10.008 42.345 10.7333 42.665 11.736C43.0063 12.7387 43.177 14.104 43.177 15.832V24.6L44.969 24.856V27H36.265V24.888L37.833 24.6V15.864C37.833 14.84 37.7583 14.0507 37.609 13.496C37.481 12.92 37.2463 12.504 36.905 12.248C36.5637 11.992 36.073 11.864 35.433 11.864C34.4517 11.864 33.3423 12.3227 32.105 13.24V24.6L33.865 24.888V27H25.001V24.888L26.761 24.6V12.568Z" fill="#117301"/>
<path d="M50.998 6.45601C50.166 6.45601 49.494 6.21068 48.982 5.72001C48.47 5.22934 48.214 4.60001 48.214 3.83201C48.214 2.93601 48.4913 2.20001 49.046 1.62401C49.622 1.04801 50.39 0.76001 51.35 0.76001C52.31 0.76001 53.046 1.00534 53.558 1.49601C54.07 1.98668 54.326 2.61601 54.326 3.38401C54.326 4.30134 54.038 5.04801 53.462 5.62401C52.886 6.17868 52.0753 6.45601 51.03 6.45601H50.998ZM49.046 12.568L46.902 11.96V9.56001L53.302 8.79201H53.366L54.358 9.46401V24.6L56.278 24.888V27H47.062V24.888L49.046 24.6V12.568Z" fill="#117301"/>
<path d="M58.5962 24.888L60.2923 24.6V12.568L58.4043 11.992V9.49601L64.2282 8.79201L64.4842 8.92001L65.1243 9.81601V11.416C65.8069 10.712 66.8096 10.1147 68.1322 9.62401C69.4549 9.11201 70.5856 8.85601 71.5243 8.85601C72.6763 8.85601 73.6043 9.04801 74.3083 9.43201C75.0336 9.81601 75.5776 10.4133 75.9402 11.224C76.6656 10.5413 77.5722 9.97601 78.6602 9.52801C79.7696 9.08001 80.8896 8.85601 82.0202 8.85601C83.8976 8.85601 85.2416 9.40001 86.0523 10.488C86.8843 11.576 87.3002 13.3573 87.3002 15.832V24.6L89.2203 24.888V27H80.5482V24.888L81.9883 24.6V15.96C81.9883 14.424 81.8069 13.3573 81.4443 12.76C81.1029 12.1627 80.4629 11.864 79.5243 11.864C78.5429 11.864 77.5189 12.28 76.4523 13.112C76.5803 13.9013 76.6442 14.808 76.6442 15.832V24.6L78.4362 24.888V27H69.7002V24.888L71.3002 24.6V15.864C71.3002 14.3493 71.1296 13.304 70.7883 12.728C70.4683 12.152 69.8496 11.864 68.9323 11.864C68.3349 11.864 67.7376 12.0027 67.1403 12.28C66.5643 12.536 66.0629 12.856 65.6363 13.24V24.6L67.3643 24.888V27H58.5962V24.888Z" fill="#117301"/>
<path d="M90.8335 21.88C90.8335 20.0027 91.7828 18.5627 93.6815 17.56C95.6015 16.5573 98.1188 16.0453 101.233 16.024V15.384C101.233 14.616 101.148 14.008 100.978 13.56C100.807 13.112 100.497 12.7813 100.049 12.568C99.6015 12.3333 98.9402 12.216 98.0655 12.216C97.0202 12.216 96.0815 12.344 95.2495 12.6C94.4388 12.8347 93.5855 13.1547 92.6895 13.56L91.6015 11.256C91.9428 10.9787 92.4975 10.648 93.2655 10.264C94.0335 9.85868 94.9508 9.51734 96.0175 9.24001C97.1055 8.94134 98.2362 8.79201 99.4095 8.79201C101.116 8.79201 102.449 9.01601 103.41 9.46401C104.391 9.91201 105.084 10.6053 105.49 11.544C105.916 12.4827 106.13 13.7627 106.13 15.384V24.888H107.794V26.904C107.303 27.0107 106.62 27.1173 105.745 27.224C104.871 27.3307 104.124 27.384 103.506 27.384C102.695 27.384 102.151 27.2667 101.874 27.032C101.618 26.7973 101.49 26.328 101.49 25.624V24.888C100.956 25.528 100.241 26.104 99.3455 26.616C98.4495 27.1067 97.4148 27.352 96.2415 27.352C95.2388 27.352 94.3215 27.1387 93.4895 26.712C92.6788 26.264 92.0282 25.6347 91.5375 24.824C91.0682 23.992 90.8335 23.0107 90.8335 21.88ZM98.7375 24.408C99.1215 24.408 99.5482 24.3013 100.018 24.088C100.487 23.8533 100.892 23.576 101.233 23.256V18.168C99.5695 18.168 98.3322 18.4667 97.5215 19.064C96.7322 19.6613 96.3375 20.4293 96.3375 21.368C96.3375 22.328 96.5508 23.0747 96.9775 23.608C97.4042 24.1413 97.9908 24.408 98.7375 24.408Z" fill="#117301"/>
<path d="M111.196 3.89601L108.955 3.48001V1.52801L115.355 0.76001H115.451L116.38 1.43201V24.6L118.46 24.888V27H109.147V24.888L111.196 24.6V3.89601Z" fill="#117301"/>
<path d="M124.532 24.344C124.681 24.5787 125.022 24.792 125.556 24.984C126.11 25.176 126.665 25.272 127.219 25.272C128.094 25.272 128.756 25.0907 129.204 24.728C129.673 24.344 129.908 23.8533 129.908 23.256C129.908 22.616 129.609 22.0933 129.012 21.688C128.414 21.2613 127.433 20.7493 126.067 20.152L124.852 19.608C123.465 18.9893 122.419 18.2427 121.715 17.368C121.033 16.472 120.691 15.3413 120.691 13.976C120.691 12.9947 120.979 12.12 121.555 11.352C122.131 10.5627 122.963 9.94401 124.051 9.49601C125.139 9.04801 126.42 8.82401 127.892 8.82401C128.916 8.82401 129.801 8.88801 130.548 9.01601C131.294 9.14401 132.052 9.30401 132.82 9.49601C133.332 9.64534 133.715 9.73068 133.971 9.75201V14.104H131.124L130.292 11.64C130.185 11.448 129.929 11.2773 129.523 11.128C129.118 10.9573 128.659 10.872 128.147 10.872C127.337 10.872 126.697 11.0533 126.228 11.416C125.758 11.7573 125.523 12.2267 125.523 12.824C125.523 13.5067 125.79 14.0507 126.324 14.456C126.857 14.84 127.71 15.2987 128.883 15.832L129.555 16.12C131.283 16.8453 132.638 17.6347 133.62 18.488C134.601 19.32 135.092 20.472 135.092 21.944C135.092 23.5227 134.462 24.824 133.204 25.848C131.945 26.8507 130.089 27.352 127.635 27.352C126.505 27.352 125.502 27.256 124.628 27.064C123.753 26.8933 122.793 26.6587 121.747 26.36L120.691 26.072V21.816H123.731L124.532 24.344Z" fill="#117301"/>
<path d="M139.678 5.88001L137.374 5.46401V3.22401H147.742V5.46401L145.118 5.88001V13.528H153.886V5.91201L151.486 5.46401V3.22401H161.726V5.46401L159.358 5.88001V24.568L161.726 24.888V27H151.486V24.888L153.886 24.536V16.248H145.118V24.568L147.742 24.888V27H137.31V24.888L139.678 24.568V5.88001Z" fill="#117301"/>
<path d="M164.378 18.2C164.378 16.152 164.783 14.424 165.594 13.016C166.404 11.5867 167.492 10.52 168.857 9.81601C170.244 9.11201 171.759 8.76001 173.402 8.76001C176.09 8.76001 178.191 9.57068 179.706 11.192C181.242 12.792 182.01 15.032 182.01 17.912C182.01 20.024 181.604 21.784 180.794 23.192C179.983 24.6 178.895 25.6453 177.529 26.328C176.164 27.0107 174.639 27.352 172.954 27.352C170.287 27.352 168.186 26.552 166.65 24.952C165.135 23.3307 164.378 21.08 164.378 18.2ZM173.273 25.112C174.297 25.112 175.055 24.568 175.546 23.48C176.058 22.3707 176.314 20.6427 176.314 18.296C176.314 15.8 176.068 13.9653 175.577 12.792C175.108 11.5973 174.308 11 173.178 11C171.087 11 170.042 13.272 170.042 17.816C170.042 20.2907 170.297 22.1253 170.809 23.32C171.321 24.5147 172.143 25.112 173.273 25.112Z" fill="#117301"/>
<path d="M184.909 24.888L186.605 24.6V12.568L184.717 11.992V9.49601L190.541 8.79201L190.797 8.92001L191.437 9.81601V11.416C192.119 10.712 193.122 10.1147 194.445 9.62401C195.767 9.11201 196.898 8.85601 197.837 8.85601C198.989 8.85601 199.917 9.04801 200.621 9.43201C201.346 9.81601 201.89 10.4133 202.253 11.224C202.978 10.5413 203.885 9.97601 204.973 9.52801C206.082 9.08001 207.202 8.85601 208.333 8.85601C210.21 8.85601 211.554 9.40001 212.365 10.488C213.197 11.576 213.613 13.3573 213.613 15.832V24.6L215.533 24.888V27H206.861V24.888L208.301 24.6V15.96C208.301 14.424 208.119 13.3573 207.757 12.76C207.415 12.1627 206.775 11.864 205.837 11.864C204.855 11.864 203.831 12.28 202.765 13.112C202.893 13.9013 202.957 14.808 202.957 15.832V24.6L204.749 24.888V27H196.013V24.888L197.613 24.6V15.864C197.613 14.3493 197.442 13.304 197.101 12.728C196.781 12.152 196.162 11.864 195.245 11.864C194.647 11.864 194.05 12.0027 193.453 12.28C192.877 12.536 192.375 12.856 191.949 13.24V24.6L193.677 24.888V27H184.909V24.888Z" fill="#117301"/>
<path d="M225.85 27.352C222.927 27.352 220.762 26.5307 219.354 24.888C217.946 23.224 217.242 20.9627 217.242 18.104C217.242 16.1627 217.605 14.488 218.33 13.08C219.055 11.672 220.069 10.6053 221.37 9.88001C222.693 9.13334 224.239 8.76001 226.01 8.76001C228.25 8.76001 229.957 9.32534 231.13 10.456C232.325 11.5867 232.943 13.1867 232.986 15.256C232.986 16.6213 232.89 17.72 232.698 18.552H222.682C222.789 20.3653 223.226 21.752 223.994 22.712C224.783 23.6507 225.882 24.12 227.29 24.12C228.079 24.12 228.901 23.992 229.754 23.736C230.629 23.4587 231.333 23.1493 231.866 22.808L232.762 24.76C232.207 25.3787 231.258 25.9653 229.914 26.52C228.591 27.0747 227.237 27.352 225.85 27.352ZM227.898 16.44L227.93 15.096C227.93 13.752 227.749 12.728 227.386 12.024C227.023 11.32 226.405 10.968 225.53 10.968C224.634 10.968 223.941 11.3627 223.45 12.152C222.959 12.92 222.693 14.3493 222.65 16.44H227.898Z" fill="#117301"/>
</svg>
